#N canvas 45 36 1245 814 10;
#X obj 78 655 *~;
#X obj 93 635 line~;
#X obj 658 655 *~;
#X obj 673 635 line~;
#X obj 78 776 throw~ \$1-grainL;
#X obj 658 776 throw~ \$1-grainR;
#X obj 78 458 +~ 1;
#X obj 78 536 *~;
#X obj 78 487 +~;
#X obj 117 470 samphold~;
#X obj 78 386 samphold~;
#X obj 78 433 *~;
#X obj 268 474 -~ 0.5;
#X obj 268 496 *~ 0.5;
#X obj 268 519 cos~;
#X obj 78 555 +~;
#X obj 306 200 line~;
#X floatatom 565 49 0 0 0 0 - - -;
#X obj 576 171 t b f;
#X obj 565 195 /;
#X obj 565 251 phasor~;
#X obj 642 268 +~ 0.5;
#X obj 642 290 wrap~;
#X text 600 49 <-- transposition \, halftones/10;
#X obj 78 512 tabread4~ \$1-audioL;
#X obj 78 300 r \$0-chunk-size-samples;
#X obj 112 185 t f f;
#X obj 565 26 r \$0-lb;
#X obj 1110 28 s \$0-lb;
#X obj 1110 7 loadbang;
#X obj 874 579 r \$0-lb;
#X obj 160 224 s \$0-chunk-size;
#X obj 576 146 r \$0-chunk-size;
#X obj 112 248 s \$0-chunk-size-samples;
#X obj 565 315 s~ \$0-phase;
#X obj 642 315 s~ \$0-phase2;
#X obj 306 223 s~ \$0-read-pt;
#X obj 140 386 r~ \$0-phase;
#X obj 93 411 r~ \$0-phase;
#X obj 117 447 r~ \$0-read-pt;
#X obj 179 470 r~ \$0-phase;
#X obj 268 452 r~ \$0-phase;
#X obj 358 458 +~ 1;
#X obj 358 536 *~;
#X obj 358 487 +~;
#X obj 397 470 samphold~;
#X obj 358 386 samphold~;
#X obj 358 433 *~;
#X obj 548 474 -~ 0.5;
#X obj 548 496 *~ 0.5;
#X obj 548 519 cos~;
#X obj 358 512 tabread4~ \$1-audioL;
#X obj 397 447 r~ \$0-read-pt;
#X obj 420 386 r~ \$0-phase2;
#X obj 373 411 r~ \$0-phase2;
#X obj 548 452 r~ \$0-phase2;
#X obj 459 470 r~ \$0-phase2;
#X obj 658 458 +~ 1;
#X obj 658 536 *~;
#X obj 658 487 +~;
#X obj 697 470 samphold~;
#X obj 658 386 samphold~;
#X obj 658 433 *~;
#X obj 848 474 -~ 0.5;
#X obj 848 496 *~ 0.5;
#X obj 848 519 cos~;
#X obj 658 555 +~;
#X obj 720 386 r~ \$0-phase;
#X obj 673 411 r~ \$0-phase;
#X obj 697 447 r~ \$0-read-pt;
#X obj 759 470 r~ \$0-phase;
#X obj 848 452 r~ \$0-phase;
#X obj 938 458 +~ 1;
#X obj 938 536 *~;
#X obj 938 487 +~;
#X obj 977 470 samphold~;
#X obj 938 386 samphold~;
#X obj 938 433 *~;
#X obj 1128 474 -~ 0.5;
#X obj 1128 496 *~ 0.5;
#X obj 1128 519 cos~;
#X obj 977 447 r~ \$0-read-pt;
#X obj 1000 386 r~ \$0-phase2;
#X obj 953 411 r~ \$0-phase2;
#X obj 1128 452 r~ \$0-phase2;
#X obj 1039 470 r~ \$0-phase2;
#X obj 658 512 tabread4~ \$1-audioR;
#X obj 938 512 tabread4~ \$1-audioR;
#X floatatom 112 163 12 0 0 0 - - -;
#X floatatom 565 222 5 0 0 0 - - -;
#X obj 127 89 r \$1-size;
#X obj 115 66 hsl 100 15 0 1 0 0 empty empty empty -2 -8 0 10 -262144
-1 -1 2475 1;
#X obj 160 202 / 44100;
#X obj 112 136 *;
#X floatatom 210 202 5 0 0 0 - - -;
#X obj 321 129 r \$1-size;
#X obj 309 110 hsl 100 15 0 1 0 0 empty empty empty -2 -8 0 10 -262144
-1 -1 0 0;
#X obj 306 150 *;
#X text 225 65 chunk-size;
#X text 421 109 read-pt;
#X obj 848 599 hsl 128 15 0 1 0 0 empty empty empty -2 -8 0 10 -262144
-1 -1 3810 1;
#X obj 658 747 *~;
#X obj 78 747 *~;
#X obj 673 706 r \$0-active;
#X obj 869 211 tgl 15 0 empty empty empty 17 7 0 10 -262144 -1 -1 0
1;
#X obj 903 132 s \$0-point;
#X obj 981 132 s \$0-amp;
#X obj 786 582 r \$0-amp;
#X obj 306 86 r \$0-point;
#X obj 869 48 r \$1-lista;
#X obj 592 96 / 120;
#X obj 565 118 pow;
#X obj 565 74 t b f;
#X msg 565 96 2;
#X obj 869 70 route \$2;
#X obj 206 9 loadbang;
#X obj 206 28 del 1000;
#X msg 845 579 0.3;
#X obj 869 293 s \$0-active;
#X obj 673 614 pack 0 50;
#X obj 93 614 pack 0 50;
#X obj 673 727 vline~;
#X obj 93 727 vline~;
#X obj 869 234 sel 0 1;
#X msg 869 267 0 50;
#X msg 206 47 0.25;
#X obj 112 40 r \$1-chunk;
#X obj 78 579 *~ 0.4;
#X obj 658 579 *~ 0.4;
#X obj 127 112 / 5;
#X obj 78 362 sig~;
#X obj 78 324 pack 0 100;
#X obj 78 343 line;
#X obj 78 677 hip~ 5;
#X obj 658 677 hip~ 5;
#X obj 869 104 unpack f f f;
#X obj 869 165 change;
#X msg 907 267 1 50;
#X text 923 186 tempo p atualizar read-pt;
#X obj 306 175 pack 0 20;
#X obj 869 186 pipe 40;
#X connect 0 0 133 0;
#X connect 1 0 0 1;
#X connect 2 0 134 0;
#X connect 3 0 2 1;
#X connect 6 0 8 0;
#X connect 7 0 15 0;
#X connect 8 0 24 0;
#X connect 9 0 8 1;
#X connect 10 0 11 0;
#X connect 11 0 6 0;
#X connect 12 0 13 0;
#X connect 13 0 14 0;
#X connect 14 0 7 1;
#X connect 15 0 127 0;
#X connect 16 0 36 0;
#X connect 17 0 112 0;
#X connect 18 0 19 0;
#X connect 18 1 19 1;
#X connect 19 0 89 0;
#X connect 20 0 21 0;
#X connect 20 0 34 0;
#X connect 21 0 22 0;
#X connect 22 0 35 0;
#X connect 24 0 7 0;
#X connect 25 0 131 0;
#X connect 26 0 33 0;
#X connect 26 1 92 0;
#X connect 27 0 17 0;
#X connect 29 0 28 0;
#X connect 30 0 117 0;
#X connect 32 0 18 0;
#X connect 37 0 10 1;
#X connect 38 0 11 1;
#X connect 39 0 9 0;
#X connect 40 0 9 1;
#X connect 41 0 12 0;
#X connect 42 0 44 0;
#X connect 43 0 15 1;
#X connect 44 0 51 0;
#X connect 45 0 44 1;
#X connect 46 0 47 0;
#X connect 47 0 42 0;
#X connect 48 0 49 0;
#X connect 49 0 50 0;
#X connect 50 0 43 1;
#X connect 51 0 43 0;
#X connect 52 0 45 0;
#X connect 53 0 46 1;
#X connect 54 0 47 1;
#X connect 55 0 48 0;
#X connect 56 0 45 1;
#X connect 57 0 59 0;
#X connect 58 0 66 0;
#X connect 59 0 86 0;
#X connect 60 0 59 1;
#X connect 61 0 62 0;
#X connect 62 0 57 0;
#X connect 63 0 64 0;
#X connect 64 0 65 0;
#X connect 65 0 58 1;
#X connect 66 0 128 0;
#X connect 67 0 61 1;
#X connect 68 0 62 1;
#X connect 69 0 60 0;
#X connect 70 0 60 1;
#X connect 71 0 63 0;
#X connect 72 0 74 0;
#X connect 73 0 66 1;
#X connect 74 0 87 0;
#X connect 75 0 74 1;
#X connect 76 0 77 0;
#X connect 77 0 72 0;
#X connect 78 0 79 0;
#X connect 79 0 80 0;
#X connect 80 0 73 1;
#X connect 81 0 75 0;
#X connect 82 0 76 1;
#X connect 83 0 77 1;
#X connect 84 0 78 0;
#X connect 85 0 75 1;
#X connect 86 0 58 0;
#X connect 87 0 73 0;
#X connect 88 0 26 0;
#X connect 89 0 20 0;
#X connect 90 0 129 0;
#X connect 91 0 93 0;
#X connect 92 0 31 0;
#X connect 92 0 94 0;
#X connect 93 0 88 0;
#X connect 95 0 97 1;
#X connect 96 0 97 0;
#X connect 97 0 139 0;
#X connect 100 0 119 0;
#X connect 100 0 120 0;
#X connect 101 0 5 0;
#X connect 102 0 4 0;
#X connect 103 0 121 0;
#X connect 103 0 122 0;
#X connect 104 0 123 0;
#X connect 107 0 100 0;
#X connect 108 0 96 0;
#X connect 109 0 114 0;
#X connect 110 0 111 1;
#X connect 111 0 19 0;
#X connect 112 0 113 0;
#X connect 112 1 110 0;
#X connect 113 0 111 0;
#X connect 114 0 135 0;
#X connect 115 0 116 0;
#X connect 116 0 125 0;
#X connect 117 0 100 0;
#X connect 119 0 3 0;
#X connect 120 0 1 0;
#X connect 121 0 101 1;
#X connect 122 0 102 1;
#X connect 123 0 124 0;
#X connect 123 1 137 0;
#X connect 124 0 118 0;
#X connect 125 0 91 0;
#X connect 126 0 91 0;
#X connect 127 0 0 0;
#X connect 128 0 2 0;
#X connect 129 0 93 1;
#X connect 130 0 10 0;
#X connect 130 0 46 0;
#X connect 130 0 61 0;
#X connect 130 0 76 0;
#X connect 131 0 132 0;
#X connect 132 0 130 0;
#X connect 133 0 102 0;
#X connect 134 0 101 0;
#X connect 135 0 136 0;
#X connect 135 1 105 0;
#X connect 135 2 106 0;
#X connect 136 0 140 0;
#X connect 137 0 118 0;
#X connect 139 0 16 0;
#X connect 140 0 104 0;
