#N canvas 204 22 781 827 10;
#X obj 62 62 openpanel;
#X obj 62 41 bng 15 250 50 0 empty empty empty 17 7 0 10 -262144 -1
-1;
#X msg 62 106 read -resize \$1 \$2-audioL \$2-audioR;
#X obj 62 129 soundfiler;
#X obj 145 46 loadbang;
#X obj 369 86 r listaIn;
#X msg 145 67 audio1.wav;
#X obj 602 34 table 1-audioL 44100;
#X obj 602 54 table 1-audioR 44100;
#X obj 45 230 grain 1 0;
#X obj 369 112 s 1-lista;
#X obj 62 84 pack s 1;
#X obj 62 176 s 1-size;
#X obj 100 284 catch~ 1-grainL;
#X obj 227 284 catch~ 1-grainR;
#X obj 228 67 symbol;
#X obj 228 47 r caminho;
#X obj 450 86 r grainSize;
#X obj 450 105 change;
#X obj 153 509 vd~ \$0-delayL 500;
#X obj 273 509 vd~ \$0-delayR 500;
#X obj 153 586 *~;
#X obj 168 566 line~;
#X obj 168 546 pack 0 50;
#X obj 273 586 *~;
#X obj 288 566 line~;
#X obj 288 546 pack 0 50;
#X obj 153 464 line~;
#X obj 153 444 pack 0 100;
#X obj 156 374 hsl 128 15 0 1 0 0 empty empty empty -2 -8 0 10 -262144
-1 -1 0 1;
#X obj 153 395 t f f;
#X obj 255 412 moses 0.0001;
#X msg 255 432 0;
#X msg 324 432 1;
#X obj 288 449 t f;
#X obj 288 468 change;
#X obj 363 603 *~;
#X obj 378 583 line~;
#X obj 378 563 pack 0 50;
#X obj 483 603 *~;
#X obj 498 583 line~;
#X obj 498 563 pack 0 50;
#X obj 501 514 hsl 128 15 0 1 0 0 empty empty empty -2 -8 0 10 -262144
-1 -1 0 1;
#X obj 153 348 change;
#X obj 498 458 change;
#X obj 153 328 r delayTime;
#X obj 498 438 r delayFB;
#X obj 100 653 e_dynproc;
#X obj 227 653 e_dynproc;
#N canvas 317 277 415 164 preset_limiter 0;
#X obj 43 29 loadbang;
#X obj 43 107 outlet;
#X msg 43 58 comp1 50 \, comp2 1 \, att 1 \, rel 1000 \, thresh 80
\, makeup 50;
#X connect 0 0 2 0;
#X connect 2 0 1 0;
#X restore 303 636 pd preset_limiter;
#X obj 100 770 dac~;
#X obj 667 336 loadbang;
#X msg 667 357 0;
#X obj 507 163 s 1-chunk;
#X obj 498 478 * 0.95;
#X obj 363 301 delwrite~ \$0-delayL 5000;
#X obj 483 327 delwrite~ \$0-delayR 5000;
#X obj 153 425 * 5000;
#X obj 450 127 moses 0.05;
#X msg 450 146 0.05;
#X obj 115 230 grain 1 1;
#X obj 185 230 grain 1 2;
#X obj 255 230 grain 1 3;
#X obj 325 230 grain 1 4;
#X obj 395 230 grain 1 5;
#X obj 465 230 grain 1 6;
#X obj 535 230 grain 1 7;
#X obj 605 230 grain 1 8;
#X obj 675 230 grain 1 9;
#X obj 357 770 writesf~ 2;
#X obj 357 671 r recPath;
#X obj 467 651 r Rec;
#X obj 467 671 t f;
#X obj 467 711 sel 1 0;
#X msg 467 753 start;
#X msg 509 753 stop;
#X obj 357 692 symbol;
#X obj 467 691 change 5;
#X msg 357 713 open -wave \$1;
#X msg 129 167 normalize 1;
#X obj 129 188 s 1-audioL;
#X obj 199 188 s 1-audioR;
#X obj 62 150 t f b;
#X connect 0 0 11 0;
#X connect 1 0 0 0;
#X connect 2 0 3 0;
#X connect 3 0 82 0;
#X connect 4 0 6 0;
#X connect 5 0 10 0;
#X connect 6 0 11 0;
#X connect 11 0 2 0;
#X connect 13 0 47 0;
#X connect 13 0 55 0;
#X connect 14 0 48 0;
#X connect 14 0 56 0;
#X connect 15 0 11 0;
#X connect 16 0 15 0;
#X connect 17 0 18 0;
#X connect 18 0 58 0;
#X connect 19 0 21 0;
#X connect 20 0 24 0;
#X connect 21 0 36 0;
#X connect 21 0 47 0;
#X connect 22 0 21 1;
#X connect 23 0 22 0;
#X connect 24 0 39 0;
#X connect 24 0 48 0;
#X connect 25 0 24 1;
#X connect 26 0 25 0;
#X connect 27 0 19 0;
#X connect 27 0 20 0;
#X connect 28 0 27 0;
#X connect 29 0 30 0;
#X connect 30 0 57 0;
#X connect 30 1 31 0;
#X connect 31 0 32 0;
#X connect 31 1 33 0;
#X connect 32 0 34 0;
#X connect 33 0 34 0;
#X connect 34 0 35 0;
#X connect 35 0 26 0;
#X connect 35 0 23 0;
#X connect 36 0 55 0;
#X connect 37 0 36 1;
#X connect 38 0 37 0;
#X connect 39 0 56 0;
#X connect 40 0 39 1;
#X connect 41 0 40 0;
#X connect 42 0 41 0;
#X connect 42 0 38 0;
#X connect 43 0 29 0;
#X connect 44 0 54 0;
#X connect 45 0 43 0;
#X connect 46 0 44 0;
#X connect 47 0 50 0;
#X connect 47 0 69 0;
#X connect 48 0 50 1;
#X connect 48 0 69 1;
#X connect 49 0 48 2;
#X connect 49 0 47 2;
#X connect 51 0 52 0;
#X connect 52 0 42 0;
#X connect 52 0 29 0;
#X connect 54 0 42 0;
#X connect 57 0 28 0;
#X connect 58 0 59 0;
#X connect 58 1 53 0;
#X connect 59 0 53 0;
#X connect 70 0 76 0;
#X connect 71 0 72 0;
#X connect 72 0 77 0;
#X connect 73 0 74 0;
#X connect 73 1 75 0;
#X connect 74 0 69 0;
#X connect 75 0 69 0;
#X connect 76 0 78 0;
#X connect 77 0 73 0;
#X connect 78 0 69 0;
#X connect 79 0 80 0;
#X connect 79 0 81 0;
#X connect 82 0 12 0;
#X connect 82 1 79 0;
